<?xml version="1.0" encoding="utf-8"?>
<!-- Generator: Adobe Illustrator 22.0.0, SVG Export Plug-In . SVG Version: 6.00 Build 0)  -->
<svg version="1.1" id="Warstwa_1" xmlns="http://www.w3.org/2000/svg" xmlns:xlink="http://www.w3.org/1999/xlink" x="0px" y="0px"
	 viewBox="0 0 612 665.9" style="enable-background:new 0 0 612 665.9;" xml:space="preserve">
<style type="text/css">
	.st0{fill:#FFFFFF;}
	.st1{font-family:'LingLengLang';}
	.st2{font-size:191px;}
	.st3{fill:#E8E4DF;stroke:#000000;stroke-width:0.5;stroke-miterlimit:10;}
	.st4{fill:#D0D0C0;stroke:#000000;stroke-width:0.5;stroke-miterlimit:10;}
	.st5{fill:#D0CFBF;stroke:#000000;stroke-width:0.5;stroke-miterlimit:10;}
	.st6{fill:#B0AA9A;stroke:#000000;stroke-width:0.5;stroke-miterlimit:10;}
	.st7{fill:#DACEC9;stroke:#000000;stroke-width:0.5;stroke-miterlimit:10;}
	.st8{fill:#E6E3DD;stroke:#000000;stroke-width:0.5;stroke-miterlimit:10;}
	.st9{fill:#BAB6A6;stroke:#000000;stroke-width:0.5;stroke-miterlimit:10;}
	.st10{fill:#EAE7E2;stroke:#000000;stroke-width:0.5;stroke-miterlimit:10;}
	.st11{fill:#DDDBD1;stroke:#000000;stroke-width:0.5;stroke-miterlimit:10;}
	.st12{fill:#D4A279;stroke:#000000;stroke-width:0.5;stroke-miterlimit:10;}
	.st13{fill:#BD8E66;stroke:#000000;stroke-width:0.75;stroke-miterlimit:10;}
	.st14{fill:#C4BBB6;stroke:#000000;stroke-width:0.5;stroke-miterlimit:10;}
	.st15{fill:#C2B9B4;stroke:#000000;stroke-width:0.5;stroke-miterlimit:10;}
	.st16{fill:#C3BBB6;stroke:#000000;stroke-width:0.25;stroke-miterlimit:10;}
	.st17{fill:#D8D6CA;stroke:#000000;stroke-width:0.5;stroke-miterlimit:10;}
	.st18{fill:#C0B7B1;stroke:#000000;stroke-width:0.5;stroke-miterlimit:10;}
	.st19{fill:#C0B7B2;stroke:#000000;stroke-width:0.5;stroke-miterlimit:10;}
	.st20{fill:#C1B8B3;stroke:#000000;stroke-width:0.5;stroke-miterlimit:10;}
	.st21{fill:#C1B8B3;stroke:#000000;stroke-width:0.25;stroke-miterlimit:10;}
	.st22{fill:#B5ADA5;stroke:#000000;stroke-width:0.5;stroke-miterlimit:10;}
	.st23{fill:#C0B8B1;stroke:#000000;stroke-width:0.5;stroke-miterlimit:10;}
	.st24{fill:#BAB6A6;stroke:#000000;stroke-width:0.25;stroke-miterlimit:10;}
	.st25{fill:#999182;stroke:#000000;stroke-width:0.5;stroke-miterlimit:10;}
	.st26{fill:#C7BDB7;stroke:#000000;stroke-width:0.5;stroke-miterlimit:10;}
</style>
<text transform="matrix(1 0 0 1 1.1055 671.0684)" class="st0 st1 st2">News Roll</text>
<g>
	<path class="st3" d="M230.6,206.2c16.7-16.4,33.4-32.7,50.3-49.1c24.2-3,40.4,8.4,51.4,29c-0.1,6.1-4,9.6-8.6,12.7
		c-5.3,1.7-8,5.5-8.8,11c-10.6,8.8-19.3,19.5-29.5,28.7c-4.9,1.6-6.2,5.9-7.5,10.2c-2.2,4.2-5.4,7.4-9.6,9.7
		c-4.6,1.3-7.2,4.5-8.3,9.1c-2.3,5.5-5,10.8-10.6,13.6c-4.6,0.8-9.9,0.3-10.1,7.3c-4.3,12.2-10.9,21.5-25.5,21
		c-14.8-6.8-28.2-16.4-43.9-21.4c-7.9-3.7-18-0.9-24.8-8.3c17-19.4,42.1-29.5,58.4-50c14.2-1.2,25.5,6,35.6,11.6
		c-6.4-7.1-19.7-7-26.5-16.7c3.3-2.8,6.5-5.5,9.8-8.4c7.2-5.2,14.9-5.2,23-2.4C241.1,209.8,233.3,212.9,230.6,206.2z"/>
	<path class="st4" d="M488.5,71.6c32.5,57.9,31.3,65-20,103.8c-30.5,23-61.7,45.4-92.5,68.1c-16.9-14-18.8-37.5-33.2-53
		c-0.7-2.1-0.7-4.1-0.2-6.2c0.9-2.1,3-4.1,2.8-5.9c-2.5-17.8,3.7-26.4,22.8-23c2.5,0.4,5.1-2.6,7.9-3.8
		c11.5,1.8,14.9,12.1,19.3,20.3c5.9,10.9,11.7,12.8,20.4,3.4c11.8-12.7,25.7-23.2,39.7-33.1c15.1-10.6,18.8-22.2,9.8-38.2
		c-3.3-5.8-6.6-11.9-4.8-19.2C468.4,76.9,475.8,68.5,488.5,71.6z"/>
	<path class="st5" d="M367,252.6c-25.5,40.3-50.7,80.9-77.1,120.8c-5.2,7.8-5,24.1-21.9,19.9c-17.3-13.9-28.6-31.2-30.4-53.8
		c13.2-17.3,27.5-33.4,38.7-52.8c6.5-11.2,24.3-19.8,38-28c7.9-0.8,8.3-7.4,10-12.9c7-11.5,13.7-23.5,30-22.9
		C366.1,229.5,366.9,240.9,367,252.6z"/>
	<path class="st6" d="M239.7,338.5c4.2,20.9,20.1,35.7,28.2,54.6c-7.8,4.7-15.7,10.3-23.5-0.2c-13.6-2.4-23.7,14.8-39.5,4.8
		c-22-13.9-40.2-31.2-54.1-52.9c-2.8-4.3-4.6-9.4-7.1-14c-17.6-32.5-1.2-51.1,28.5-47.1c15.5,4.2,29.8,10.9,41,22.7
		C225.7,314.1,237.1,322.8,239.7,338.5z"/>
	<path class="st7" d="M326,112c19.5-21.2,39.2-42.2,58.7-63.4c16-8.8,30.9-7.4,45.2,4c1,2.1,1.8,4.7,0.1,6.2
		c-26.3,23.9-47.8,52.7-77.4,73.1C341.3,128.5,327.2,128.9,326,112z"/>
	<path class="st8" d="M326,112c5.9,11,19.5,10,27.5,17.8c12.6-1,17.2,9.1,23.5,16.9c0.7,2.1,0.3,4-0.9,5.8c-2,8.6-4.1,16.8-15.6,9.6
		c-2.9-1.8-6-5.5-9.4-2.1c-4,3.9-1.5,8.1,1.2,11.7c6.7,9.3,0.8,11.2-7,12.2c-18.9-9.6-35.3-22.7-51.1-36.5c3.1-4.2,6.2-8.6,9.3-12.8
		c6.8,2.2,14.1,2.9,20.9,6.6c-4.1-3.8-11.1-4.5-11.8-11.4C316.9,123.9,321.5,117.9,326,112z"/>
	<path class="st9" d="M172.3,283.7c-3.4,5.4-9.1,4-14.1,5.1c-14.4,3.1-20.1,11.4-15.6,26.4c10.2,34.2,32.4,58.6,61.7,77.4
		c8.8,5.5,18.2,7.9,26-2.6c7-9.4,10.9-3.9,14.3,3c-22.5,17.3-34.6,17.5-57.3-1.4c-20.3-16.9-37.7-36.3-49.1-61
		c-8.9-19.3-9.2-35.9,7-51.1C154.1,280.5,164.2,275.7,172.3,283.7z"/>
	<path class="st10" d="M430.3,57.6c-13.6-11-29.8-8.7-45.5-9c23.6-29,43.5-30.2,77.1-4.6c-6.6,8.9-14,16.6-26.3,16.9
		C433.5,60.4,431.7,59.3,430.3,57.6z"/>
	<path class="st11" d="M434.5,57.9c11.7,0.5,15.6-14.4,27.5-13.9c10.3,7.7,20.3,15.9,26.6,27.6c-9.9,2.6-16.1,12.5-26.8,13.4
		c-3.4,1.5-5.8-0.2-8-2.3C448.6,73.3,435.3,70.5,434.5,57.9z"/>
	<path class="st12" d="M294,147.4c20.6,7.1,37.5,19.7,51.1,36.5c-0.4,1.4-0.7,2.7-0.7,4.1c2.2,4.1-0.5,5.9-3.7,7.3
		c-5.1,0.3-8.5-1.7-10.1-6.6c-11.6-18.4-30.2-25.8-49.7-31.6C282.3,149.9,287.9,148.4,294,147.4z"/>
	<path class="st13" d="M338.3,193.5c2.1-1.7,4.1-3.6,6.2-5.3c17.8,14.2,22.7,35.9,31.5,55.3c-2.2,3.9-4.5,7.7-9.1,9.1
		c-4.7-9.1-9.2-18.4-13.9-27.5C344.8,216.1,334.9,207.9,338.3,193.5z"/>
	<path class="st14" d="M230.6,206.2c11.9,1.5,25,0.8,32.1,18.5c-15.2-3.6-26.9-11.7-40.4-8.6C225,212.8,227.9,209.5,230.6,206.2z"/>
	<path class="st15" d="M212.6,224.4c10.6,3.1,20.7,7.4,33.6,18c-18.8-1.8-30.7-7.2-42.7-13C206.5,227.7,209.5,226.1,212.6,224.4z"/>
	<path class="st16" d="M312.3,129.8c7.9,5.8,19.4,6.5,27.5,19.8c-15.7-2.7-26.9-6.4-36.4-15C306.4,133,309.3,131.4,312.3,129.8z"/>
	<path class="st17" d="M338.3,193.5c3.3,11.3,14.1,19.1,14.8,31.6c-13.1,2.7-17.2,16.2-27,22.7c-13.6-2.5-2.3,11.4-8.8,13.6
		c-14.6,5.6-18,28.5-38.4,25.1c2.5,14.1-11.2,20.1-15.2,30.5c-4.7,12.1-14,16.5-23.8,21.6c-8.8-10.8-17.6-21.5-26.3-32.1
		c12.6-2.4,19.8-10.1,22.3-22.5c1.4-0.8,2.9-1.3,4.1-0.5c6.7,3.9,8.6,3.3,9.3-3.5c3-4.7,6.1-9.3,9.2-13.9c9.1,3.3,4.9-7,8.9-8.8
		c1.7-4.6,4.8-7.7,9.4-9.3c4.6-2.1,7.8,0.7,11.2,3.3c-2.6-5.5-10.5-8.8-7.1-16.8c1.4-0.2,4-0.1,4.1-0.7
		c3.9-14.4,17.5-18.8,27.7-26.6c2.9-1.5,5.6-0.7,8.1,0.9c1.8,1.2,3.5,2.6,4.5,4.7c0.8-3-2.4-3.8-3.3-6c-1.1-2.8-2-5.4-0.3-8.3
		c1.6-4.5,4.8-7.5,9.1-9.3C333.2,190.4,335.7,191.9,338.3,193.5z"/>
	<path class="st18" d="M280.7,234.3c3.9,10.4,19.5,14.3,16.7,32c-8.3-7.4-14.6-12.9-20.7-18.6C273.8,242,267.8,235.2,280.7,234.3z"
		/>
	<path class="st19" d="M249,279.8c-0.9,10.1,11.6,13.4,12.2,24.4c-15.9,1.8-14.9-17.2-25.6-20.3c-0.3-2.6-1.6-7.1-0.7-7.6
		C240.5,272.9,244.5,277.8,249,279.8z"/>
	<path class="st20" d="M321.5,198.1c4.5,8.9,14,15.4,12.5,29.3c-10.2-4.9-11.5-17.7-21.5-20.5c-1-3.1-4.2-6.3-0.8-9.7
		C315.3,193.9,318.3,197.1,321.5,198.1z"/>
	<path class="st21" d="M267.2,257.1c-1.7,7.8,9.8,11.5,6.4,20.1c-8.5,0.3-8.5-10.3-15.3-11.3c-1.1-3.9-6.5-8-1.1-11.4
		C259.1,253.1,263.8,256.1,267.2,257.1z"/>
	<path class="st22" d="M457.1,80.5c1.5,1.5,3,2.9,4.6,4.5c20.6,40.6,20.6,40.6-13.5,70c-2.8,2.4-5.6,5-8.9,6.7
		c-14.7,7.5-22,31.4-37.4,28c-12.1-2.7-14.1-26.3-25.8-37.1c-0.2-1.4-0.4-2.8-0.7-4.2c16.3-26.8,41.3-45.4,63.2-66.9
		C443.7,76.4,450.7,75.2,457.1,80.5z"/>
	<path class="st23" d="M317.1,261.3c-0.8-2.8-1.6-5.6-2.3-8.6c-1.1-5.1-9.4-11.2-1.3-15.1c7.1-3.5,6.7,8.4,12.4,10.2
		c-1.3,5.5,6.7,10.9,1.1,16C325.6,265,320.5,262.2,317.1,261.3z"/>
	<path class="st24" d="M212.9,374.7c1.3,4.1,8.5,4.3,6.8,10.3c-27.8-5.3-66.9-44.2-69.3-70.6c-1.6-17.9,8.7-19.3,23.3-13.4
		c-1.5,8.3-24.3,4.1-10.8,19.1C181.6,336.5,194.7,357.8,212.9,374.7z"/>
	<path class="st25" d="M212.9,374.7C188,364,175.6,342,163,320.2C189.1,324,214.1,351.2,212.9,374.7z"/>
	<path class="st26" d="M457.1,80.5c-10.5-1.7-16.4,5.4-23,11.6c-19.7,18.6-36.7,39.9-58.6,56.1c-7.3-6.2-14.7-12.3-21.9-18.5
		c24.2-25.5,45.3-54.3,76.7-72.2c1.4,0.1,2.8,0.2,4.2,0.3C442,65.4,452.7,69.8,457.1,80.5z"/>
</g>
</svg>
